/* XPM */
static char *_4390ec687f24ba0d3948e2ef5ad7132[] = {
/* columns rows colors chars-per-pixel */
"32 32 2 1 ",
"  c #191B26",
". c None",
/* pixels */
"................................",
"................................",
"............. ..   .............",
"............  ..     ...........",
"............  ....    ..........",
"............  ......   .........",
"............   ......   ........",
".......            ...   .......",
".......           .....  .......",
"......   ...   ........  .......",
"......   ...  .........   ......",
"......  ....  .........   ......",
"......   ...  ....  ...   ......",
"......   ...   ..   ...  .......",
".......  ....      ....  .......",
".......   ....    ....   .......",
"........  ...........   ........",
"........   .........    ........",
".........    ......    .........",
"..........            ..........",
"............        ............",
"................................",
".. .............................",
".  .............................",
"     .  ..     .     ..  .     .",
".  ...  .     .      ..  .      ",
".  ...  .  ....  ...  .  .  ..  ",
".  ...  .  ....  ...  .  . ...  ",
".  ...  .  ....  ...  .  . ...  ",
".   ..  ..     .     ..  .  ..  ",
"..  .. ....   ...   ... .. ...  ",
"................................"
};
