/* XPM */
static char *_221ccc8758b479e850773345f773cc0[] = {
/* columns rows colors chars-per-pixel */
"16 16 2 1 ",
"  c #191B26",
". c None",
/* pixels */
"................",
"...... .  ......",
"...... ..   ....",
"....     .. ....",
"...      ..  ...",
"... .. ..... ...",
"... ..  . .. ...",
"...  ..   .  ...",
"....  ....  ....",
".....      .....",
"......   .......",
"  ..............",
"  . .  .  ..    ",
" ..   .  .    . ",
"  . . .  .   .. ",
"................"
};
