/* XPM */
static char *_86d47907d264280be8fdf1d156f4bfc[] = {
/* columns rows colors chars-per-pixel */
"48 48 2 1 ",
"  c #191B26",
". c None",
/* pixels */
"................................................",
"................................................",
"................................................",
".................... ...   .....................",
"..................    ..      ..................",
"..................    ..        ................",
"..................    ...        ...............",
"..................    .......     ..............",
"..................    ........     .............",
"..................    ..........    ............",
"...........                 .....    ...........",
"...........                 .....    ...........",
"..........                 .......    ..........",
"..........                ........    ..........",
"..........   .....    .............   ..........",
"..........   .....    .............   ..........",
"..........   .....    .............   ..........",
".........    .....    .............    .........",
"..........   .....    .....    ....   ..........",
"..........   .....    ....     ....   ..........",
"..........   .....     ..     .....   ..........",
"..........    .....           ....    ..........",
"..........    ......         .....    ..........",
"...........    ......      ......    ...........",
"...........    ..................    ...........",
"............    ................    ............",
"............     ..............    .............",
".............      ..........      .............",
"..............        ....        ..............",
"................                ................",
".................              .................",
"....................        ....................",
"................................................",
"................................................",
"..  ............................................",
".   ............................................",
"       ..  .....      ...     ....   ..  .     .",
"       ..   ...       ..        ..   ..        .",
".   .....  ...       ..         ..   ..         ",
"..  .....  ...   ......   ....   ..  ..   ...   ",
".   .....  ..   ......   .....   ..  ..  ....   ",
".   .....  ..   ......   .....   ..  ..  ....   ",
".   .....  ...   .....    ....   ..  ..  ....   ",
".   .....  ...    .. ..    ..    .   ..  ....   ",
"..     ..   ...       ..        ..   ..  ....   ",
"..     ..  .....      ...      ...   ..  ....   ",
"................................................",
"................................................"
};
