/* XPM */
static char *d93db5ec01a44a6dd44e12449ec0d7d8[] = {
/* columns rows colors chars-per-pixel */
"128 128 2 1 ",
"  c #191B26",
". c None",
/* pixels */
"................................................................................................................................",
"................................................................................................................................",
"................................................................................................................................",
"................................................................................................................................",
"................................................................................................................................",
"................................................................................................................................",
"................................................................................................................................",
"................................................................................................................................",
".......................................................  .......         .......................................................",
"...................................................      .......            ....................................................",
".................................................        .......               .................................................",
"................................................         .......                 ...............................................",
"...............................................          .......                   .............................................",
"...............................................          .......                    ............................................",
"...............................................          .......                      ..........................................",
"...............................................          .......                       .........................................",
"...............................................          ........                        .......................................",
"...............................................          ..............                   ......................................",
"...............................................          .................                 .....................................",
"...............................................          ....................               ....................................",
"...............................................          .....................               ...................................",
"...............................................          .......................              ..................................",
"...............................................          .........................            ..................................",
"...............................................          ..........................            .................................",
"...............................................          ...........................            ................................",
"...............................................          ............................           ................................",
"...............................................           ............................           ...............................",
"..............................                                              ...........           ..............................",
".............................                                               ............          ..............................",
".............................                                               ............           .............................",
"............................                                               ..............          .............................",
"............................                                              ...............           ............................",
"............................                                             .................          ............................",
"...........................                                             ...................         ............................",
"...........................                                            ....................          ...........................",
"..........................                                            .....................          ...........................",
"..........................                                          ........................         ...........................",
"..........................         ............          ...................................          ..........................",
"..........................         ............          ...................................          ..........................",
"..........................         ............          ....................................         ..........................",
".........................          ............          ....................................         ..........................",
".........................         .............          ....................................         ..........................",
".........................         .............          ....................................         ..........................",
".........................         .............          ....................................         ..........................",
".........................         .............          ....................................         ..........................",
".........................         .............          ....................................          .........................",
".........................         .............          ....................................          .........................",
".........................         .............          ...............         ............          .........................",
".........................         .............           .............           ...........         ..........................",
".........................         ..............          .............          ............         ..........................",
".........................         ..............          .............          ............         ..........................",
".........................          .............           ...........           ............         ..........................",
".........................          .............            .........            ............         ..........................",
"..........................         ..............            .......            .............         ..........................",
"..........................         ..............                               ............          ..........................",
"..........................          ..............                             .............         ...........................",
"..........................          ..............                             .............         ...........................",
"...........................         ...............                           .............          ...........................",
"...........................          ...............                         ..............          ...........................",
"...........................          ................                       ..............          ............................",
"............................          ................                     ...............          ............................",
"............................          .................                   ...............          .............................",
".............................          ..................               .................          .............................",
".............................           ...................           ..................          ..............................",
"..............................          ...............................................           ..............................",
"..............................           .............................................           ...............................",
"...............................           ...........................................            ...............................",
"...............................            .........................................            ................................",
"................................            .......................................            .................................",
".................................            .....................................             .................................",
"..................................             ..................................             ..................................",
"..................................              ...............................              ...................................",
"...................................               ............................              ....................................",
"....................................                .......................                .....................................",
".....................................                  ..................                 ......................................",
"......................................                     ..........                    .......................................",
"........................................                                                ........................................",
".........................................                                              .........................................",
"..........................................                                           ...........................................",
"............................................                                        ............................................",
"..............................................                                    ..............................................",
"................................................                                ................................................",
"..................................................                           ...................................................",
".....................................................                     ......................................................",
".........................................................             ..........................................................",
"................................................................................................................................",
"................................................................................................................................",
"................................................................................................................................",
"................................................................................................................................",
".........  .....................................................................................................................",
".....      .....................................................................................................................",
"....       .....................................................................................................................",
"....       .....................................................................................................................",
"....       .....................................................................................................................",
"....       .....................................................................................................................",
".                 ......      ................        ................        ..............      .....      ......       ......",
"                   ....        .............             ..........              ...........       ....       ...           ....",
"                   ....       ............                 .......                ..........       ....       .              ...",
"                   ....       ...........                   ....                   .........       ....                       ..",
"                   ....       ..........                   ....                      .......       ....                        .",
"                   ....       .........                   ....                       .......       ....                        .",
"....        ...........       ........                   .....                        ......       ....                        .",
"....       ............       .......           ......  .....          .....           .....       ....           .....         ",
"....       ............       .......         ..............          ........         .....       ....         ........        ",
"....       ............       ......         ...............        ...........         ....       ....        .........        ",
"....       ............       ......        ................        ............        ....       ....        .........        ",
"....       ............       ......        ................       ..............       ....       ....       ...........       ",
"....       ............       ......       ................        ..............       ....       ....       ...........       ",
"....       ............       ......       ................        ..............       ....       ....       ...........       ",
"....       ............       ......       ................        ..............       ....       ....       ...........       ",
"....       ............       ......       ................        ..............       ....       ....       ...........       ",
"....       ............       ......        ................       ..............       ....       ....       ...........       ",
"....       ............       ......        ................        ............        ....       ....       ...........       ",
"....       ............       ......         ...............        ...........         ....       ....       ...........       ",
"....       ............       .......         .......... ....         ........         .....       ....       ...........       ",
"....        ...........       .......           ......   ....          .....           .....       ....       ...........       ",
"....         ..   .....       ........                    ....                        ......       ....       ...........       ",
"....              .....       .........                    ...                       .......       ....       ...........       ",
".....             .....       ..........                    ...                      .......       ....       ...........       ",
".....              ....       ...........                   ....                   .........       ....       ...........       ",
"......             ....       ............                 .......                ..........       ....       ...........       ",
".......           .....        .............             ..........             ............       ....       ...........       ",
".........       ........ .... ................         ...............        ................... ..... .... ............ .... .",
"................................................................................................................................",
"................................................................................................................................",
"................................................................................................................................",
"................................................................................................................................",
"................................................................................................................................"
};
