<?xml version="1.0" encoding="utf-8"?>
<!-- Generator: Adobe Illustrator 19.0.0, SVG Export Plug-In . SVG Version: 6.00 Build 0)  -->
<svg version="1.1"
	 id="svg2" xmlns:dc="http://purl.org/dc/elements/1.1/" xmlns:svg="http://www.w3.org/2000/svg" xmlns:cc="http://creativecommons.org/ns#" xmlns:sodipodi="http://sodipodi.sourceforge.net/DTD/sodipodi-0.dtd" xmlns:rdf="http://www.w3.org/1999/02/22-rdf-syntax-ns#" xmlns:inkscape="http://www.inkscape.org/namespaces/inkscape" sodipodi:docname="bitcoin-logo-noshadow.svg" inkscape:version="0.48.2 r9819"
	 xmlns="http://www.w3.org/2000/svg" xmlns:xlink="http://www.w3.org/1999/xlink" x="0px" y="0px" viewBox="206 -116 1024 1024"
	 style="enable-background:new 206 -116 1024 1024;" xml:space="preserve">
<style type="text/css">
	.st0{display:none;}
	.st1{display:inline;fill:#FFFFFF;}
	.st2{display:inline;}
	.st3{fill:url(#SVGID_1_);}
	.st4{fill:url(#SVGID_2_);}
	.st5{display:inline;fill:url(#SVGID_3_);}
	.st6{fill:#191B26;}
</style>
<g class="st0">
	<circle class="st1" cx="2124.2" cy="-451.8" r="353.1"/>
	<g class="st2">
		
			<radialGradient id="SVGID_1_" cx="2639.9951" cy="-329.1884" r="34.4319" gradientTransform="matrix(1.7655 0 0 1.7655 -2497.0674 26.0413)" gradientUnits="userSpaceOnUse">
			<stop  offset="0" style="stop-color:#F9AA4B"/>
			<stop  offset="1" style="stop-color:#F7931A"/>
		</radialGradient>
		<path class="st3" d="M2123.6-593.7l-24.7,99c28,7,114.3,35.4,128.3-20.6C2241.8-573.7,2151.6-586.7,2123.6-593.7z"/>
	</g>
	<g class="st2">
		
			<radialGradient id="SVGID_2_" cx="2624.4531" cy="-241.0623" r="39.858" gradientTransform="matrix(1.7655 0 0 1.7655 -2497.0674 26.0413)" gradientUnits="userSpaceOnUse">
			<stop  offset="0" style="stop-color:#F9AA4B"/>
			<stop  offset="1" style="stop-color:#F7931A"/>
		</radialGradient>
		<path class="st4" d="M2086.5-444.7l-27.2,109.2c33.6,8.3,137.3,41.6,152.6-19.9C2227.9-419.7,2120.1-436.3,2086.5-444.7z"/>
	</g>
	
		<radialGradient id="SVGID_3_" cx="2618.5049" cy="-269.6636" r="255.9973" gradientTransform="matrix(1.7655 0 0 1.7655 -2497.0674 26.0413)" gradientUnits="userSpaceOnUse">
		<stop  offset="0" style="stop-color:#F9AA4B"/>
		<stop  offset="1" style="stop-color:#F7931A"/>
	</radialGradient>
	<path class="st5" d="M2235.2-888.5c-242.1-60.4-487.3,87-547.7,329.2c-60.4,242.1,87,487.4,329,547.7
		c242.2,60.4,487.4-87,547.8-329.1S2477.4-828.1,2235.2-888.5z M2325.2-514.4c-6.5,44-30.9,65.3-63.3,72.8
		c44.5,23.2,67.1,58.7,45.6,120.3c-26.8,76.5-90.4,82.9-174.9,66.9l-20.6,82.3l-49.6-12.4l20.3-81.1c-12.9-3.2-26-6.6-39.5-10.3
		l-20.3,81.5l-49.5-12.4l20.5-82.4c-11.6-3-23.3-6.1-35.4-9.1l-64.5-16.1l24.6-56.8c0,0,36.5,9.7,36,9c14,3.5,20.3-5.7,22.7-11.8
		l32.4-130l0.1-0.4l23.1-92.8c0.6-10.5-3-23.8-23.1-28.8c0.8-0.5-36-9-36-9l13.2-53l68.4,17.1l-0.1,0.3c10.3,2.6,20.9,5,31.7,7.4
		l20.3-81.4l49.6,12.4l-19.9,79.9c13.3,3,26.7,6.1,39.7,9.4l19.8-79.3l49.6,12.4l-20.3,81.5C2288.4-606.9,2334.2-574.5,2325.2-514.4
		z"/>
</g>
<path class="st6" d="M292.6,768.6v-90.1h-29v-42.3h28.6v-35.6l52.5-11.8v47.4h54.1v42.3h-53.7v91.7c0,13.6,5.5,20.4,16.5,20.4
	c4.2,0,8.4-0.7,12.7-2.2c4.3-1.4,7.6-2.8,10-4.1l3.1-2.4l14.9,39.6c-15.2,9.7-31.2,14.5-48.2,14.5c-21.4,0-37-5.7-46.8-17
	C297.5,807.6,292.6,790.8,292.6,768.6"/>
<rect x="432.2" y="635.6" class="st6" width="51.4" height="196.5"/>
<rect x="926.7" y="635.6" class="st6" width="51.4" height="196.5"/>
<path class="st6" d="M551.9,806.3c-20.4-19.8-30.6-43.9-30.6-72.1c0-28.2,10.2-52.2,30.8-72.1c20.5-19.8,45.1-29.8,73.8-29.8
	c26.9,0,50.1,8,69.7,23.9l-32.1,38c-8.4-7.3-20.5-11-36.4-11c-14.9,0-27.4,4.8-37.4,14.5c-10.1,9.7-15.1,21.8-15.1,36.4
	c0,14.4,5,26.4,14.9,36.2c9.9,9.8,23,14.7,39.2,14.7c18,0,32.1-4.4,42.3-13.3l28.6,40.3C679,828.1,654.4,836,626,836
	C597,836,572.3,826.1,551.9,806.3"/>
<path class="st6" d="M723.3,806.3c-20.5-19.8-30.8-43.9-30.8-72.1c0-28.2,10.2-52.2,30.8-72.1c20.5-19.8,45.1-29.8,73.8-29.8
	c28.7,0,53.3,9.9,73.8,29.8c20.5,19.9,30.8,43.9,30.8,72.1c0,28.2-10.3,52.2-30.8,72.1c-20.5,19.9-45.1,29.8-73.8,29.8
	C768.4,836,743.8,826.1,723.3,806.3 M760.9,698.1c-10.1,9.9-15.1,21.9-15.1,36c0,14.1,5,26.1,15.1,36c10,9.9,22.1,14.9,36.2,14.9
	c14.1,0,26.2-5,36.2-14.9c10-9.9,15.1-21.9,15.1-36c0-14.1-5-26.1-15.1-36c-10.1-9.9-22.1-14.9-36.2-14.9
	C783,683.2,770.9,688.2,760.9,698.1"/>
<path class="st6" d="M1004.7,832.1V636.2h52.5v25.5c14.9-19.6,35.3-29.4,61.1-29.4c26.1,0,44.3,7.9,54.5,23.7
	c10.2,15.8,15.3,38.6,15.3,68.4v107.7h-52.9V730.3c0-17-2.1-29.1-6.3-36.2c-4.2-7.2-13.3-10.8-27.4-10.8c-13.3,0-24,4.7-32.1,14.1
	c-8.1,9.4-12.1,21.7-12.1,36.8v97.9H1004.7z"/>
<path class="st6" d="M718,2.1c0,5.9,4.7,10.8,10.6,11c127.6,5.8,228.8,114.8,221.9,245.3c-6.3,118-101.8,213.5-219.8,219.8
	c-134.1,7.1-245.5-99.9-245.5-232.5c0-24.4,3.8-47.9,10.8-70c0.7-2.3,2.9-3.8,5.3-3.8h88.3v79.5c0,73.4,58.1,134.9,131.4,136.3
	c71,1.3,129.9-52.8,136.1-121.9c0.6-6.5-4.5-12.1-11.1-12.1h-56.7c-5.1,0-10.1,4-10.9,9c-4.4,27-28.5,47.6-57,46.5
	c-30.1-1.1-53.4-26.8-53.4-56.9v-80.4h80.5c2.9,0,5.8-1.2,7.8-3.2l56.3-56.3c7-7,2-18.9-7.8-18.9H668V-54
	c-25.1,4.2-49.1,11.4-71.7,21.3c-4.1,1.8-6.7,5.8-6.7,10.2V93.4H461.7c-4,0-7.7,2.1-9.7,5.6c-11.1,20-19.9,41.4-26.3,63.8
	c-0.1,0.2-0.2,0.5-0.2,0.7c-0.6,2.3-1.2,4.5-1.8,6.8c-0.1,0.5-0.3,1-0.4,1.5h0c-5.9,23.7-9.1,48.4-9.1,73.9
	C414.2,417.2,557,556,730,549.3c157.7-6.1,285.5-133.9,291.6-291.6c6.6-170.1-127.4-311-295-315.7c-4.7-0.1-8.6,3.6-8.6,8.3V2.1z"/>
</svg>
